<mxfile host="app.diagrams.net" modified="2024-03-25T13:45:58.928Z" agent="Mozilla/5.0 (X11; Linux x86_64) AppleWebKit/537.36 (KHTML, like Gecko) Chrome/122.0.0.0 Safari/537.36" etag="L7r5DrZkK7T388Nmwv7-" version="24.1.0" type="device">
  <diagram name="Страница — 1" id="wVg4q1xpoYzk7cq95Lmr">
    <mxGraphModel dx="1399" dy="1846" grid="1" gridSize="10" guides="1" tooltips="1" connect="1" arrows="1" fold="1" page="1" pageScale="1" pageWidth="827" pageHeight="1169" math="0" shadow="0">
      <root>
        <mxCell id="0" />
        <mxCell id="1" parent="0" />
        <mxCell id="umxXPz5LOX6iatrTBUNH-8" style="edgeStyle=orthogonalEdgeStyle;rounded=0;orthogonalLoop=1;jettySize=auto;html=1;" parent="1" source="FA5GC-SaBS5Zqd9aOeQE-1" target="umxXPz5LOX6iatrTBUNH-6" edge="1">
          <mxGeometry relative="1" as="geometry" />
        </mxCell>
        <mxCell id="FA5GC-SaBS5Zqd9aOeQE-1" value="Client" style="shape=umlActor;verticalLabelPosition=middle;verticalAlign=middle;html=1;outlineConnect=0;labelPosition=left;align=right;" parent="1" vertex="1">
          <mxGeometry x="423.5" y="-130" width="30" height="60" as="geometry" />
        </mxCell>
        <mxCell id="o2QGskBemvk3I-d5TUzo-5" value="" style="edgeStyle=orthogonalEdgeStyle;rounded=0;orthogonalLoop=1;jettySize=auto;html=1;entryX=0.905;entryY=1.008;entryDx=0;entryDy=0;entryPerimeter=0;" edge="1" parent="1" source="FA5GC-SaBS5Zqd9aOeQE-5" target="FA5GC-SaBS5Zqd9aOeQE-8">
          <mxGeometry relative="1" as="geometry">
            <mxPoint x="145.5" y="695" as="targetPoint" />
          </mxGeometry>
        </mxCell>
        <mxCell id="o2QGskBemvk3I-d5TUzo-9" value="" style="edgeStyle=orthogonalEdgeStyle;rounded=0;orthogonalLoop=1;jettySize=auto;html=1;entryX=0.113;entryY=1.015;entryDx=0;entryDy=0;entryPerimeter=0;" edge="1" parent="1" source="FA5GC-SaBS5Zqd9aOeQE-5" target="FA5GC-SaBS5Zqd9aOeQE-10">
          <mxGeometry relative="1" as="geometry">
            <mxPoint x="751.5" y="695" as="targetPoint" />
          </mxGeometry>
        </mxCell>
        <mxCell id="FA5GC-SaBS5Zqd9aOeQE-5" value="&lt;h2 style=&quot;box-sizing: inherit; text-rendering: optimizelegibility; -webkit-font-smoothing: antialiased; font-family: &amp;quot;TT Norms Pro&amp;quot;, Arial, sans-serif; color: rgb(51, 51, 51); margin: 0px; line-height: 1.2em; padding-bottom: 5px; font-variant-ligatures: none; background-color: rgb(255, 255, 255);&quot;&gt;&lt;font style=&quot;font-size: 14px;&quot;&gt;RabbitMQ&lt;/font&gt;&lt;/h2&gt;" style="rounded=1;whiteSpace=wrap;html=1;align=center;spacingRight=20;" parent="1" vertex="1">
          <mxGeometry x="307" y="660" width="243" height="70" as="geometry" />
        </mxCell>
        <mxCell id="FA5GC-SaBS5Zqd9aOeQE-8" value="&lt;font style=&quot;font-size: 14px;&quot;&gt;&lt;b&gt;User&lt;/b&gt;&lt;/font&gt;" style="rounded=1;whiteSpace=wrap;html=1;labelPosition=center;verticalLabelPosition=middle;align=center;verticalAlign=middle;" parent="1" vertex="1">
          <mxGeometry x="40" y="240" width="220" height="130" as="geometry" />
        </mxCell>
        <mxCell id="FA5GC-SaBS5Zqd9aOeQE-9" value="&lt;font style=&quot;font-size: 14px;&quot;&gt;&lt;b&gt;Blog&lt;/b&gt;&lt;/font&gt;" style="rounded=1;whiteSpace=wrap;html=1;labelPosition=center;verticalLabelPosition=middle;align=center;verticalAlign=middle;" parent="1" vertex="1">
          <mxGeometry x="290" y="240" width="250" height="130" as="geometry" />
        </mxCell>
        <mxCell id="FA5GC-SaBS5Zqd9aOeQE-10" value="&lt;b&gt;&lt;font style=&quot;font-size: 14px;&quot;&gt;Notify&lt;/font&gt;&lt;/b&gt;" style="rounded=1;whiteSpace=wrap;html=1;labelPosition=center;verticalLabelPosition=middle;align=center;verticalAlign=middle;" parent="1" vertex="1">
          <mxGeometry x="600" y="240" width="160" height="130" as="geometry" />
        </mxCell>
        <mxCell id="FA5GC-SaBS5Zqd9aOeQE-32" style="edgeStyle=orthogonalEdgeStyle;rounded=0;orthogonalLoop=1;jettySize=auto;html=1;exitX=0.5;exitY=0;exitDx=0;exitDy=0;entryX=0.5;entryY=1;entryDx=0;entryDy=0;" parent="1" source="FA5GC-SaBS5Zqd9aOeQE-17" target="FA5GC-SaBS5Zqd9aOeQE-8" edge="1">
          <mxGeometry relative="1" as="geometry" />
        </mxCell>
        <mxCell id="FA5GC-SaBS5Zqd9aOeQE-17" value="DB Mongo" style="shape=datastore;whiteSpace=wrap;html=1;" parent="1" vertex="1">
          <mxGeometry x="120" y="420" width="60" height="60" as="geometry" />
        </mxCell>
        <mxCell id="FA5GC-SaBS5Zqd9aOeQE-20" value="DB PG" style="shape=datastore;whiteSpace=wrap;html=1;" parent="1" vertex="1">
          <mxGeometry x="384" y="420" width="60" height="60" as="geometry" />
        </mxCell>
        <mxCell id="FA5GC-SaBS5Zqd9aOeQE-21" value="" style="edgeStyle=orthogonalEdgeStyle;rounded=0;orthogonalLoop=1;jettySize=auto;html=1;" parent="1" source="FA5GC-SaBS5Zqd9aOeQE-20" edge="1">
          <mxGeometry relative="1" as="geometry">
            <mxPoint x="414" y="370" as="targetPoint" />
          </mxGeometry>
        </mxCell>
        <mxCell id="FA5GC-SaBS5Zqd9aOeQE-23" value="&lt;font style=&quot;font-size: 10px;&quot;&gt;Registration&lt;/font&gt;" style="rounded=1;whiteSpace=wrap;html=1;" parent="1" vertex="1">
          <mxGeometry x="50" y="250" width="60" height="25" as="geometry" />
        </mxCell>
        <mxCell id="FA5GC-SaBS5Zqd9aOeQE-27" value="&lt;span style=&quot;font-size: 10px;&quot;&gt;Info&lt;/span&gt;" style="rounded=1;whiteSpace=wrap;html=1;" parent="1" vertex="1">
          <mxGeometry x="120" y="250" width="60" height="25" as="geometry" />
        </mxCell>
        <mxCell id="FA5GC-SaBS5Zqd9aOeQE-28" value="&lt;span style=&quot;font-size: 10px;&quot;&gt;Subscribes&lt;/span&gt;" style="rounded=1;whiteSpace=wrap;html=1;" parent="1" vertex="1">
          <mxGeometry x="190" y="250" width="60" height="25" as="geometry" />
        </mxCell>
        <mxCell id="FA5GC-SaBS5Zqd9aOeQE-29" value="&lt;font style=&quot;font-size: 10px;&quot;&gt;Change Password&lt;/font&gt;" style="rounded=1;whiteSpace=wrap;html=1;" parent="1" vertex="1">
          <mxGeometry x="50" y="292.5" width="60" height="25" as="geometry" />
        </mxCell>
        <mxCell id="FA5GC-SaBS5Zqd9aOeQE-30" value="&lt;span style=&quot;font-size: 10px;&quot;&gt;CRUD&lt;/span&gt;" style="rounded=1;whiteSpace=wrap;html=1;" parent="1" vertex="1">
          <mxGeometry x="384" y="250" width="60" height="25" as="geometry" />
        </mxCell>
        <mxCell id="FA5GC-SaBS5Zqd9aOeQE-31" value="&lt;span style=&quot;font-size: 10px;&quot;&gt;CRUD&lt;/span&gt;" style="rounded=1;whiteSpace=wrap;html=1;" parent="1" vertex="1">
          <mxGeometry x="650" y="250" width="60" height="25" as="geometry" />
        </mxCell>
        <mxCell id="FA5GC-SaBS5Zqd9aOeQE-34" value="&lt;span style=&quot;font-size: 10px;&quot;&gt;Comments&lt;br&gt;&lt;/span&gt;" style="rounded=1;whiteSpace=wrap;html=1;" parent="1" vertex="1">
          <mxGeometry x="310" y="250" width="60" height="25" as="geometry" />
        </mxCell>
        <mxCell id="FA5GC-SaBS5Zqd9aOeQE-35" value="&lt;span style=&quot;font-size: 10px;&quot;&gt;Likes&lt;br&gt;&lt;/span&gt;" style="rounded=1;whiteSpace=wrap;html=1;" parent="1" vertex="1">
          <mxGeometry x="460" y="250" width="60" height="25" as="geometry" />
        </mxCell>
        <mxCell id="FA5GC-SaBS5Zqd9aOeQE-36" value="&lt;span style=&quot;font-size: 10px;&quot;&gt;Search&lt;br&gt;&lt;/span&gt;" style="rounded=1;whiteSpace=wrap;html=1;" parent="1" vertex="1">
          <mxGeometry x="310" y="292.5" width="60" height="25" as="geometry" />
        </mxCell>
        <mxCell id="FA5GC-SaBS5Zqd9aOeQE-37" value="&lt;span style=&quot;font-size: 10px;&quot;&gt;Filter&lt;br&gt;&lt;/span&gt;" style="rounded=1;whiteSpace=wrap;html=1;" parent="1" vertex="1">
          <mxGeometry x="460" y="292.5" width="60" height="25" as="geometry" />
        </mxCell>
        <mxCell id="FA5GC-SaBS5Zqd9aOeQE-38" value="&lt;font style=&quot;font-size: 10px;&quot;&gt;Feed&lt;/font&gt;" style="rounded=1;whiteSpace=wrap;html=1;" parent="1" vertex="1">
          <mxGeometry x="190" y="292.5" width="60" height="25" as="geometry" />
        </mxCell>
        <mxCell id="FA5GC-SaBS5Zqd9aOeQE-39" value="&lt;span style=&quot;font-size: 10px;&quot;&gt;Pagination&lt;br&gt;&lt;/span&gt;" style="rounded=1;whiteSpace=wrap;html=1;" parent="1" vertex="1">
          <mxGeometry x="310" y="330" width="60" height="25" as="geometry" />
        </mxCell>
        <mxCell id="FA5GC-SaBS5Zqd9aOeQE-41" value="&lt;span style=&quot;font-size: 10px;&quot;&gt;Email&lt;br&gt;&lt;/span&gt;" style="rounded=1;whiteSpace=wrap;html=1;" parent="1" vertex="1">
          <mxGeometry x="650" y="330" width="60" height="25" as="geometry" />
        </mxCell>
        <mxCell id="FA5GC-SaBS5Zqd9aOeQE-42" value="&lt;span style=&quot;font-size: 10px;&quot;&gt;Tags&lt;br&gt;&lt;/span&gt;" style="rounded=1;whiteSpace=wrap;html=1;" parent="1" vertex="1">
          <mxGeometry x="460" y="330" width="60" height="25" as="geometry" />
        </mxCell>
        <mxCell id="FA5GC-SaBS5Zqd9aOeQE-43" value="&lt;span style=&quot;font-size: 10px;&quot;&gt;Repost&lt;br&gt;&lt;/span&gt;" style="rounded=1;whiteSpace=wrap;html=1;" parent="1" vertex="1">
          <mxGeometry x="385" y="330" width="60" height="25" as="geometry" />
        </mxCell>
        <mxCell id="umxXPz5LOX6iatrTBUNH-1" value="&lt;b&gt;&lt;font style=&quot;font-size: 14px;&quot;&gt;File Vault&lt;/font&gt;&lt;/b&gt;" style="rounded=1;whiteSpace=wrap;html=1;labelPosition=center;verticalLabelPosition=middle;align=center;verticalAlign=middle;" parent="1" vertex="1">
          <mxGeometry x="800" y="240" width="160" height="130" as="geometry" />
        </mxCell>
        <mxCell id="umxXPz5LOX6iatrTBUNH-4" style="edgeStyle=orthogonalEdgeStyle;rounded=0;orthogonalLoop=1;jettySize=auto;html=1;entryX=0.5;entryY=1;entryDx=0;entryDy=0;" parent="1" source="umxXPz5LOX6iatrTBUNH-3" target="umxXPz5LOX6iatrTBUNH-1" edge="1">
          <mxGeometry relative="1" as="geometry" />
        </mxCell>
        <mxCell id="umxXPz5LOX6iatrTBUNH-3" value="DB Mongo" style="shape=datastore;whiteSpace=wrap;html=1;" parent="1" vertex="1">
          <mxGeometry x="850" y="420" width="60" height="60" as="geometry" />
        </mxCell>
        <mxCell id="umxXPz5LOX6iatrTBUNH-5" value="&lt;span style=&quot;font-size: 10px;&quot;&gt;CRUD&lt;/span&gt;" style="rounded=1;whiteSpace=wrap;html=1;" parent="1" vertex="1">
          <mxGeometry x="850" y="250" width="60" height="25" as="geometry" />
        </mxCell>
        <mxCell id="o2QGskBemvk3I-d5TUzo-10" style="edgeStyle=orthogonalEdgeStyle;rounded=0;orthogonalLoop=1;jettySize=auto;html=1;entryX=0.5;entryY=0;entryDx=0;entryDy=0;" edge="1" parent="1" source="umxXPz5LOX6iatrTBUNH-6" target="FA5GC-SaBS5Zqd9aOeQE-8">
          <mxGeometry relative="1" as="geometry" />
        </mxCell>
        <mxCell id="o2QGskBemvk3I-d5TUzo-11" style="edgeStyle=orthogonalEdgeStyle;rounded=0;orthogonalLoop=1;jettySize=auto;html=1;entryX=0.5;entryY=0;entryDx=0;entryDy=0;" edge="1" parent="1" source="umxXPz5LOX6iatrTBUNH-6" target="FA5GC-SaBS5Zqd9aOeQE-9">
          <mxGeometry relative="1" as="geometry" />
        </mxCell>
        <mxCell id="o2QGskBemvk3I-d5TUzo-13" style="edgeStyle=orthogonalEdgeStyle;rounded=0;orthogonalLoop=1;jettySize=auto;html=1;exitX=0.75;exitY=1;exitDx=0;exitDy=0;entryX=0.5;entryY=0;entryDx=0;entryDy=0;" edge="1" parent="1" source="umxXPz5LOX6iatrTBUNH-6" target="FA5GC-SaBS5Zqd9aOeQE-10">
          <mxGeometry relative="1" as="geometry" />
        </mxCell>
        <mxCell id="o2QGskBemvk3I-d5TUzo-14" style="edgeStyle=orthogonalEdgeStyle;rounded=0;orthogonalLoop=1;jettySize=auto;html=1;exitX=1;exitY=0.5;exitDx=0;exitDy=0;entryX=0.5;entryY=0;entryDx=0;entryDy=0;" edge="1" parent="1" source="umxXPz5LOX6iatrTBUNH-6" target="umxXPz5LOX6iatrTBUNH-1">
          <mxGeometry relative="1" as="geometry" />
        </mxCell>
        <mxCell id="umxXPz5LOX6iatrTBUNH-6" value="&lt;b&gt;&lt;font style=&quot;font-size: 14px;&quot;&gt;API Gateway (BFF)&lt;/font&gt;&lt;/b&gt;" style="rounded=1;whiteSpace=wrap;html=1;align=right;spacingRight=20;" parent="1" vertex="1">
          <mxGeometry x="267" width="343" height="70" as="geometry" />
        </mxCell>
        <mxCell id="FA5GC-SaBS5Zqd9aOeQE-7" value="&lt;font style=&quot;font-size: 10px;&quot;&gt;&lt;strong style=&quot;color: rgb(51, 51, 51); font-family: &amp;quot;YS Text&amp;quot;, Arial, Helvetica, &amp;quot;Arial Unicode MS&amp;quot;, sans-serif; text-align: start; background-color: rgb(255, 255, 255);&quot;&gt;Authentication/&lt;/strong&gt;&lt;strong style=&quot;color: rgb(51, 51, 51); font-family: &amp;quot;YS Text&amp;quot;, Arial, Helvetica, &amp;quot;Arial Unicode MS&amp;quot;, sans-serif; text-align: start; background-color: rgb(255, 255, 255);&quot;&gt;Authorization&lt;/strong&gt;&lt;/font&gt;" style="rounded=1;whiteSpace=wrap;html=1;" parent="1" vertex="1">
          <mxGeometry x="279" y="20" width="150" height="30" as="geometry" />
        </mxCell>
        <mxCell id="o2QGskBemvk3I-d5TUzo-1" value="DB Mongo" style="shape=datastore;whiteSpace=wrap;html=1;" vertex="1" parent="1">
          <mxGeometry x="650" y="430" width="60" height="60" as="geometry" />
        </mxCell>
        <mxCell id="o2QGskBemvk3I-d5TUzo-2" style="edgeStyle=orthogonalEdgeStyle;rounded=0;orthogonalLoop=1;jettySize=auto;html=1;entryX=0.5;entryY=1;entryDx=0;entryDy=0;" edge="1" source="o2QGskBemvk3I-d5TUzo-1" parent="1" target="FA5GC-SaBS5Zqd9aOeQE-10">
          <mxGeometry relative="1" as="geometry">
            <mxPoint x="680" y="380" as="targetPoint" />
          </mxGeometry>
        </mxCell>
      </root>
    </mxGraphModel>
  </diagram>
</mxfile>
